<svg xmlns="http://www.w3.org/2000/svg" xmlns:xlink="http://www.w3.org/1999/xlink" width="1000" height="230" viewBox="0 0 1000 230">
    <defs>
        <path id="a" d="M0 15.002C0 6.717 6.714 0 14.992 0H810v230H14.992C6.712 230 0 223.288 0 214.998V15.002zm1000 66.991v66.014c0 8.289-5.63 18.662-12.576 23.175C987.424 171.182 905 230 810 230V0c95 0 177.424 58.818 177.424 58.818 7.002 4.44 12.576 14.89 12.576 23.175z"/>
    </defs>
    <g fill="none" fill-rule="evenodd">
        <g transform="matrix(-1 0 0 1 1000 0)">
            <use fill="#DBDBD7" xlink:href="#a"/>
            <path stroke="#DBDBD7" stroke-width="4" d="M808 228V2H14.992C7.818 2 2 7.822 2 15.002v199.996C2 222.182 7.815 228 14.992 228H808zm4-225.991V227.99c40.598-.347 81.802-11.245 121.512-29.222 14.138-6.4 27.07-13.257 38.522-20.113a288.57 288.57 0 0 0 10.562-6.616 174.117 174.117 0 0 0 2.747-1.846c.46-.316.768-.532.992-.689C992.713 165.36 998 155.618 998 148.007V81.993c0-7.668-5.279-17.449-11.647-21.486l-.09-.061c-.152-.108-.46-.324-.92-.64-.773-.532-1.69-1.15-2.747-1.846a288.569 288.569 0 0 0-10.562-6.616c-11.452-6.856-24.384-13.713-38.522-20.113C893.802 13.254 852.598 2.356 812 2.009z"/>
        </g>
        <path fill="#252525" d="M487 120.724v-10.528h1.974v8.694h4.592v1.834H487zm12.39.182c-.84 0-1.587-.152-2.24-.455a4.99 4.99 0 0 1-1.652-1.211 5.236 5.236 0 0 1-1.022-1.736 5.99 5.99 0 0 1-.35-2.03c0-.728.124-1.423.371-2.086a5.29 5.29 0 0 1 1.057-1.743 5.13 5.13 0 0 1 1.659-1.197c.649-.299 1.374-.448 2.177-.448.803 0 1.526.15 2.17.448a5.1 5.1 0 0 1 1.652 1.204 5.274 5.274 0 0 1 1.05 1.75c.243.663.364 1.358.364 2.086 0 .7-.114 1.377-.343 2.03a5.066 5.066 0 0 1-1.015 1.729c-.448.5-.996.9-1.645 1.204-.649.303-1.393.455-2.233.455zm-.014-1.806c.579 0 1.073-.105 1.484-.315a2.86 2.86 0 0 0 1.001-.826c.257-.34.446-.728.567-1.162.121-.434.182-.875.182-1.323 0-.476-.065-.936-.196-1.379a3.418 3.418 0 0 0-.595-1.169 2.98 2.98 0 0 0-1.008-.812c-.406-.205-.884-.308-1.435-.308-.541 0-1.015.1-1.421.301-.406.2-.742.471-1.008.812-.266.34-.467.733-.602 1.176a4.697 4.697 0 0 0-.203 1.379c0 .457.06.903.182 1.337.121.434.313.821.574 1.162.261.34.597.614 1.008.819.41.205.9.308 1.47.308zm12.124 1.624l-3.626-4.214v4.214H505.9v-10.528h1.974v3.836l3.346-3.836h2.408l-4.382 5.054 4.704 5.474h-2.45z"/>
    </g>
</svg>
