<svg xmlns="http://www.w3.org/2000/svg" width="16" height="16" viewBox="0 0 16 16">
    <g fill="none" fill-rule="evenodd">
        <g fill="#0B0B09">
            <path d="M9.486 6.317a.8.8 0 0 0 1.132 0l3.394-3.394-1.131-1.13-3.395 3.393a.8.8 0 0 0 0 1.131M8.92 4.62l3.395-3.394L11.183.095 7.79 3.489A.8.8 0 1 0 8.921 4.62M11.183 8.014a.8.8 0 0 0 1.132 0l3.394-3.394-1.131-1.13-3.395 3.393a.8.8 0 0 0 0 1.131M15.709 14.049L1.895.234a.8.8 0 0 0-1.26.17 4.79 4.79 0 0 0 .77 5.752l4.499 4.498L2.51 14.05a.535.535 0 0 1-.755-.755l2.263-2.263-1.131-1.13-2.263 2.262a2.135 2.135 0 0 0 0 3.017 2.135 2.135 0 0 0 3.017 0l4.525-4.526-5.63-5.63a3.187 3.187 0 0 1-.887-2.773L14.578 15.18a.8.8 0 1 0 1.13-1.131"/>
        </g>
    </g>
</svg>
