<svg xmlns="http://www.w3.org/2000/svg" width="24" height="24" viewBox="0 0 24 24">
    <g fill="#010101" fill-rule="nonzero">
        <path d="M14.243 9.748a1.2 1.2 0 0 0 1.696 0l5.091-5.091-1.696-1.697-5.091 5.091a1.2 1.2 0 0 0 0 1.697zM13.394 7.202l5.091-5.09L16.788.413l-5.091 5.091a1.2 1.2 0 1 0 1.697 1.697zM16.788 12.294a1.2 1.2 0 0 0 1.697 0l5.091-5.092-1.697-1.697-5.09 5.092a1.2 1.2 0 0 0 0 1.697zM23.576 21.345L2.855.624a1.2 1.2 0 0 0-1.89.253A7.186 7.186 0 0 0 2.12 9.505l6.748 6.749-5.09 5.09a.801.801 0 0 1-1.132-1.132L6.04 16.82l-1.697-1.697-3.394 3.394a3.203 3.203 0 0 0 0 4.526 3.203 3.203 0 0 0 4.525 0l6.789-6.789-8.446-8.445a4.782 4.782 0 0 1-1.33-4.16l19.392 19.394a1.2 1.2 0 1 0 1.697-1.697z"/>
    </g>
</svg>
