<svg xmlns="http://www.w3.org/2000/svg" xmlns:xlink="http://www.w3.org/1999/xlink" width="46" height="40" viewBox="0 0 46 40">
    <defs>
        <path id="a" d="M0 6c0-3.314 2.689-6 5.99-6H46v40H5.99A5.995 5.995 0 0 1 0 34V6z"/>
        <path id="b" d="M14 0h24v3.5C38 5.433 36.425 7 34.497 7H14V0z"/>
        <path id="c" d="M14 33h24v3.5c0 1.933-1.575 3.5-3.503 3.5H14v-7z"/>
        <rect id="d" width="12" height="40" x="34" rx="6"/>
    </defs>
    <g fill="none" fill-rule="evenodd">
        <g transform="matrix(-1 0 0 1 46 0)">
            <use fill="#FFF" xlink:href="#a"/>
            <path stroke="#00B1D2" stroke-width="2" d="M45 39V1H5.99A5 5 0 0 0 1 6v28c0 2.762 2.235 5 4.99 5H45z"/>
        </g>
        <g transform="matrix(-1 0 0 1 52 0)">
            <use fill="#FFF" xlink:href="#b"/>
            <path stroke="#00B1D2" stroke-width="2" d="M15 1v5h19.497A2.506 2.506 0 0 0 37 3.5V1H15z"/>
        </g>
        <g transform="rotate(180 26 36.5)">
            <use fill="#FFF" xlink:href="#c"/>
            <path stroke="#00B1D2" stroke-width="2" d="M15 34v5h19.497A2.506 2.506 0 0 0 37 36.5V34H15z"/>
        </g>
        <g transform="matrix(-1 0 0 1 80 0)">
            <use fill="#FFF" xlink:href="#d"/>
            <rect width="10" height="38" x="35" y="1" stroke="#00B1D2" stroke-width="2" rx="5"/>
        </g>
    </g>
</svg>
