
<svg xmlns="http://www.w3.org/2000/svg" width="34" height="24" viewBox="0 0 34 24">
    <g fill="#fff" fill-rule="evenodd">
        <path d="M22.255 8.352c-.355 2.564-2.542 2.678-4.005 2.594-.103-.006-.212-.026-.298-.036-.138-.017-.148-.178-.03-.232.297-.135 1.763-.958 1.922-2.7.033-.359.032-.86.032-.957V.291h2.42v6.821c0 .796-.021 1.094-.04 1.24M19.577 15.523c.1-2.63 2.178-4.441 5.394-4.441h8.642c.119 0 .149.078.082.209-.315.621-1.328 2.41-2.583 2.41h-5.03c-2.779 0-4.64 1.571-5.172 3.186-.097.294-.37.996-.766.996-.541 0-.628-.759-.567-2.36M14.419 15.523c-.1-2.63-2.18-4.441-5.395-4.441H.383c-.12 0-.15.078-.083.209.314.621 1.329 2.41 2.582 2.41h5.031c2.78 0 4.64 1.571 5.173 3.186.097.294.37.996.765.996.542 0 .628-.759.568-2.36"/>
        <path d="M16.998 20.97c-1.81 0-3.627-.991-4.387-2.071-.942-1.34-1.113-3.774-5.331-3.774H3.555c-.12 0-.15.079-.083.21.315.621 1.474 2.603 2.728 2.603h1.734c.935 0 1.154.665 1.604 1.446 1.325 2.656 3.94 4.46 7.46 4.46s6.135-1.804 7.46-4.46c.45-.781.668-1.446 1.604-1.446h1.733c1.255 0 2.414-1.982 2.728-2.603.067-.131.037-.21-.082-.21h-3.726c-4.217 0-4.388 2.434-5.33 3.774-.76 1.08-2.578 2.07-4.387 2.07M17.86.622v1.64s-1.253-.629-2.201-.629c-.945 0-1.66.348-1.66 1.07 0 .896 1.61 1.318 2.2 1.53.591.214 2.34 1.013 2.34 2.636 0 1.722-.912 3.302-4.076 3.302-1.667 0-2.62-.536-2.62-.536V8.012c.551.214 1.789.535 2.426.535 1.084 0 1.738-.242 1.738-.968 0-.922-1.7-1.41-2.355-1.69-.657-.28-2.162-.942-2.162-2.826 0-2.099 1.814-2.958 3.976-2.958 1.468 0 2.394.517 2.394.517"/>
    </g>
</svg>
