<svg xmlns="http://www.w3.org/2000/svg" width="22" height="22" viewBox="0 0 22 22">
    <g fill="none" fill-rule="evenodd">
        <path fill="#000" d="M8.039 17.71V9.706c0-.61.4-1.149.986-1.326l8.592-2.603c.383-.117.77.17.77.569v7.045c-.927-.43-2.146-.505-3.358-.118-2.156.687-3.478 2.573-2.953 4.21.526 1.638 2.7 2.408 4.856 1.72 1.83-.583 3.06-2.03 3.068-3.456V1.273c0-.854-.828-1.466-1.648-1.217L8.292 3.104c-1.188.36-2 1.452-2 2.69v10.083c-.91-.378-2.07-.428-3.224-.06C.912 16.505-.41 18.39.115 20.028c.526 1.638 2.7 2.408 4.856 1.72 1.837-.586 3.068-2.041 3.067-3.472v-.565z"/>
    </g>
</svg>
