<svg xmlns="http://www.w3.org/2000/svg" width="14" height="19" viewBox="0 0 14 19">
    <path fill="#246a8d" fill-rule="evenodd" d="M13.328 11.63a3.19 3.19 0 0 0-2.497-1.18H6.823l-.281-1.9h3.494c.543 0 .981-.425.981-.95 0-.525-.438-.95-.98-.95H4.278l.84 5.7h5.712c.372 0 .719.164.95.45.23.285.312.651.22 1.003l-.114.447h-7.53a.767.767 0 0 1-.761-.637L1.971 2.862c-.078-.507.327-.962.857-.962.431 0 .797.31.86.721L4 4.75h1.982l-.354-2.397C5.433 1.011 4.227 0 2.828 0 2.008 0 1.226.346.69.948a2.68 2.68 0 0 0-.66 2.189l1.624 10.75c.196 1.29 1.357 2.263 2.704 2.263h5.351v.95H3.825V19h7.846v-2.85h1.746l.487-1.886a2.975 2.975 0 0 0-.576-2.634"/>
</svg>
