<svg xmlns="http://www.w3.org/2000/svg" xmlns:xlink="http://www.w3.org/1999/xlink" width="1630" height="230" viewBox="0 0 1630 230">
    <defs>
        <rect id="a" width="30" height="82" rx="4"/>
        <rect id="b" width="30" height="82" x="1000" y="132" rx="4"/>
    </defs>
    <g fill="none" fill-rule="evenodd">
        <rect width="1626" height="226" x="2" y="2" stroke="#DBDBD7" stroke-width="4" rx="15"/>
        <g stroke="#DBDBD7" stroke-width="4">
            <path d="M94 2H38v4a4 4 0 0 0 4 4h48a4 4 0 0 0 4-4V2zM38 228h56v-4a4 4 0 0 0-4-4H42a4 4 0 0 0-4 4v4z"/>
            <g>
                <path d="M1592 2h-56v4a4 4 0 0 0 4 4h48a4 4 0 0 0 4-4V2zM1536 228h56v-4a4 4 0 0 0-4-4h-48a4 4 0 0 0-4 4v4z"/>
            </g>
        </g>
        <path fill="#00A2C7" d="M228 0h96v2h-96zM372 0h96v2h-96zM540 0h96v2h-96zM672 0h96v2h-96zM792 0h96v2h-96zM912 0h96v2h-96zM1032 0h96v2h-96zM1164 0h96v2h-96zM1296 0h96v2h-96z"/>
        <path fill="#FFF" d="M228 2h96v2h-96zM372 2h96v2h-96zM540 2h96v2h-96zM672 2h96v2h-96zM792 2h96v2h-96zM912 2h96v2h-96zM1032 2h96v2h-96zM1164 2h96v2h-96zM1296 2h96v2h-96z"/>
        <g>
            <path fill="#00A2C7" d="M228 228h36v2h-36zM312 228h36v2h-36zM396 228h96v2h-96zM528 228h96v2h-96zM660 228h96v2h-96zM780 228h96v2h-96zM900 228h96v2h-96zM1020 228h96v2h-96zM1152 228h96v2h-96zM1296 228h96v2h-96z"/>
            <path fill="#FFF" d="M228 226h36v2h-36zM312 226h36v2h-36zM396 226h96v2h-96zM528 226h96v2h-96zM660 226h96v2h-96zM780 226h96v2h-96zM900 226h96v2h-96zM1020 226h96v2h-96zM1152 226h96v2h-96zM1296 226h96v2h-96z"/>
            <path fill="#F4F4EE" d="M528 226h24v2h-24z"/>
        </g>
        <g>
            <path fill="#DBDBD7" d="M165.68 78.668h-46v-75h46z"/>
            <path fill="#F4F4EE" d="M165.68 78.668h82v-75h-82z"/>
            <path fill="#DBDBD7" d="M251.68 78.668h-4V4.022h4zM1464 4h46v75h-46z"/>
            <path fill="#F4F4EE" d="M1464 4h-82v75h82zM124 140h92v86h-92z"/>
            <path fill="#252525" d="M166.526 188.724l-1.694-7h-.028l-1.68 7h-1.96L158 178.196h2.03l2.1 7.252h.028l1.764-7.252h1.82l1.862 7.252h.028l2.044-7.252h1.974l-3.164 10.528h-1.96zm15.722-3.164a5.341 5.341 0 0 1-.742 1.351c-.308.406-.67.758-1.085 1.057-.415.299-.882.53-1.4.693a5.486 5.486 0 0 1-1.659.245c-.812 0-1.54-.15-2.184-.448a4.945 4.945 0 0 1-1.638-1.204 5.236 5.236 0 0 1-1.022-1.736 6.032 6.032 0 0 1-.35-2.044c0-.728.121-1.423.364-2.086a5.197 5.197 0 0 1 1.05-1.743 5.13 5.13 0 0 1 1.659-1.197c.649-.299 1.374-.448 2.177-.448.56 0 1.087.075 1.582.224a4.86 4.86 0 0 1 2.436 1.624c.317.392.574.826.77 1.302l-1.708.938c-.243-.747-.637-1.314-1.183-1.701s-1.183-.581-1.911-.581c-.541 0-1.013.103-1.414.308a2.963 2.963 0 0 0-1.001.819c-.266.34-.467.73-.602 1.169a4.771 4.771 0 0 0-.014 2.709c.126.434.317.821.574 1.162.257.34.586.614.987.819.401.205.877.308 1.428.308.793 0 1.463-.21 2.009-.63.546-.42.922-.99 1.127-1.708l1.75.798z"/>
            <g>
                <path fill="#F4F4EE" d="M1418 140h92v86h-92z"/>
                <g fill="#252525">
                    <path d="M1460.185 177.724l-1.626-7h-.027l-1.613 7h-1.882L1452 167.196h1.949l2.016 7.252h.027l1.693-7.252h1.747l1.788 7.252h.027l1.962-7.252h1.895l-3.037 10.528h-1.882zm15.093-3.164c-.18.495-.417.945-.712 1.351a4.963 4.963 0 0 1-1.042 1.057c-.399.299-.847.53-1.344.693a5.073 5.073 0 0 1-1.592.245c-.78 0-1.479-.15-2.097-.448a4.764 4.764 0 0 1-1.573-1.204 5.288 5.288 0 0 1-.98-1.736 6.258 6.258 0 0 1-.337-2.044c0-.728.117-1.423.35-2.086a5.242 5.242 0 0 1 1.008-1.743c.439-.5.97-.898 1.592-1.197.623-.299 1.32-.448 2.09-.448.538 0 1.044.075 1.519.224.475.15.907.36 1.297.63.39.27.737.602 1.042.994.304.392.55.826.739 1.302l-1.64.938c-.233-.747-.611-1.314-1.136-1.701-.524-.387-1.135-.581-1.834-.581-.52 0-.972.103-1.358.308a2.873 2.873 0 0 0-.96.819c-.256.34-.449.73-.578 1.169a4.957 4.957 0 0 0-.013 2.709c.12.434.304.821.55 1.162.247.34.562.614.948.819.385.205.842.308 1.37.308.762 0 1.405-.21 1.93-.63.523-.42.884-.99 1.081-1.708l1.68.798zM1468.728 191.988l-2.504-2.644a1.277 1.277 0 0 0-.93-.407h-2.634c-.337 0-.674.136-.931.407l-2.504 2.644c-.3.317-.3.83 0 1.147.3.317.785.317 1.085 0l1.332-1.408.096 1.528h4.477l.096-1.528 1.332 1.408c.3.317.786.317 1.085 0 .3-.317.3-.83 0-1.147M1461.712 194.17l-1.495 1.591a1.337 1.337 0 0 0 0 1.817l1.816 1.919a.74.74 0 0 0 1.085 0c.3-.317.3-.83 0-1.147l-.917-.97 1.274-1.347-1.763-1.863M1466.277 194.17l-1.764 1.863 1.275 1.347-.917.97c-.3.316-.3.83 0 1.147.3.316.785.316 1.085 0l1.816-1.919a1.337 1.337 0 0 0 0-1.817c-.204-.215-1.495-1.591-1.495-1.591M1466.082 186.26c0 1.218-.935 2.206-2.087 2.206-1.154 0-2.089-.988-2.089-2.207 0-1.218.935-2.206 2.089-2.206 1.152 0 2.087.988 2.087 2.206"/>
                </g>
            </g>
            <g fill="#DBDBD7">
                <path d="M661 140h4v86h-4zM120 140h4v86h-4zM1510 140h4v86h-4zM661 4h4v86h-4zM1018 4h4v86h-4zM1378 4h4v74.646h-4z"/>
            </g>
            <g>
                <g transform="translate(318 8)">
                    <use fill="#FFF" xlink:href="#a"/>
                    <rect width="28" height="80" x="1" y="1" stroke="#A38067" stroke-width="2" rx="4"/>
                </g>
                <g transform="translate(318 8)">
                    <use fill="#FFF" xlink:href="#b"/>
                    <rect width="28" height="80" x="1001" y="133" stroke="#A38067" stroke-width="2" rx="4"/>
                </g>
            </g>
        </g>
        <g fill="#252525">
            <path d="M1429.33 47.333h-14.664v-9h4.666v-3.666h5.332v2h-3.999v1.666h8.665v9zm-3-10.666V34.5c0-.827-.672-1.5-1.499-1.5h-5.666c-.826 0-1.5.673-1.5 1.5v2.167H1413V49h17.997V36.667h-4.666z"/>
        </g>
        <g fill="#252525">
            <path d="M215.33 47.333h-14.664v-9h4.666v-3.666h5.332v2h-3.999v1.666h8.665v9zm-3-10.666V34.5c0-.827-.672-1.5-1.499-1.5h-5.666c-.826 0-1.5.673-1.5 1.5v2.167H199V49h17.997V36.667h-4.666z"/>
        </g>
    </g>
</svg>
