<svg xmlns="http://www.w3.org/2000/svg" xmlns:xlink="http://www.w3.org/1999/xlink" width="1578" height="230" viewBox="0 0 1578 230">
    <defs>
        <rect id="a" width="30" height="82" x="352" rx="4"/>
        <rect id="b" width="30" height="82" y="132" rx="4"/>
        <rect id="c" width="30" height="82" x="955" rx="4"/>
        <rect id="d" width="30" height="82" x="1101" rx="4"/>
        <rect id="e" width="30" height="82" x="955" y="132" rx="4"/>
        <rect id="f" width="30" height="82" x="1101" y="132" rx="4"/>
    </defs>
    <g fill="none" fill-rule="evenodd">
        <path fill="#F4F4EE" d="M1436 155h45v73h-45z"/>
        <path fill="#252525" d="M1466.33 195.333h-14.664v-9h4.666v-3.666h5.332v2h-3.999v1.666h8.665v9zm-3-10.666V182.5c0-.827-.672-1.5-1.499-1.5h-5.666c-.826 0-1.5.673-1.5 1.5v2.167H1450V197h17.997v-12.333h-4.666z"/>
        <path fill="#F4F4EE" d="M1436 2h45v73h-45z"/>
        <path fill="#252525" d="M1466.33 44.333h-14.664v-9h4.666v-3.666h5.332v2h-3.999v1.666h8.665v9zm-3-10.666V31.5c0-.827-.672-1.5-1.499-1.5h-5.666c-.826 0-1.5.673-1.5 1.5v2.167H1450V46h17.997V33.667h-4.666z"/>
        <g>
            <path fill="#F4F4EE" d="M124 4h46v86h-46z"/>
            <path fill="#252525" d="M154.33 53.333h-14.664v-9h4.666v-3.666h5.332v2h-3.999v1.666h8.665v9zm-3-10.666V40.5c0-.827-.672-1.5-1.499-1.5h-5.666c-.826 0-1.5.673-1.5 1.5v2.167H138V55h17.997V42.667h-4.666z"/>
            <path fill="#F4F4EE" d="M1484 155h92v67.995a3 3 0 0 1-3.009 3.005H1484v-71z"/>
            <path fill="#252525" d="M1526.526 194.724l-1.694-7h-.028l-1.68 7h-1.96L1518 184.196h2.03l2.1 7.252h.028l1.764-7.252h1.82l1.862 7.252h.028l2.044-7.252h1.974l-3.164 10.528h-1.96zm15.722-3.164a5.341 5.341 0 0 1-.742 1.351c-.308.406-.67.758-1.085 1.057-.415.299-.882.53-1.4.693a5.486 5.486 0 0 1-1.659.245c-.812 0-1.54-.15-2.184-.448a4.945 4.945 0 0 1-1.638-1.204 5.236 5.236 0 0 1-1.022-1.736 6.032 6.032 0 0 1-.35-2.044c0-.728.121-1.423.364-2.086a5.197 5.197 0 0 1 1.05-1.743 5.13 5.13 0 0 1 1.659-1.197c.649-.299 1.374-.448 2.177-.448.56 0 1.087.075 1.582.224a4.86 4.86 0 0 1 2.436 1.624c.317.392.574.826.77 1.302l-1.708.938c-.243-.747-.637-1.314-1.183-1.701s-1.183-.581-1.911-.581c-.541 0-1.013.103-1.414.308a2.963 2.963 0 0 0-1.001.819c-.266.34-.467.73-.602 1.169a4.771 4.771 0 0 0-.014 2.709c.126.434.317.821.574 1.162.257.34.586.614.987.819.401.205.877.308 1.428.308.793 0 1.463-.21 2.009-.63.546-.42.922-.99 1.127-1.708l1.75.798z"/>
            <path fill="#DBDBD7" d="M1480 154.799h4V226h-4zM1433 154.799h4V226h-4zM1432 4h4v71.201h-4zM1481 4h4v71.201h-4z"/>
            <g fill="#DBDBD7">
                <path d="M688 4h46v86h-46zM738 4h46v86h-46zM124 140h46v86h-46zM738 140h46v86h-46zM572 140h162v86H572z"/>
            </g>
            <g fill="#DBDBD7">
                <path d="M734 4h4v86h-4zM120 4h4v86h-4zM1129 4h4v86h-4zM1129 140h4v86h-4zM120 140h4v86h-4zM734 140h4v86h-4z"/>
            </g>
            <g>
                <g transform="translate(120 4)">
                    <use fill="#FFF" xlink:href="#a"/>
                    <rect width="28" height="80" x="353" y="1" stroke="#A38067" stroke-width="2" rx="4"/>
                </g>
                <g transform="translate(120 4)">
                    <use fill="#FFF" xlink:href="#b"/>
                    <rect width="28" height="80" x="1" y="133" stroke="#A38067" stroke-width="2" rx="4"/>
                </g>
                <g transform="translate(120 4)">
                    <use fill="#FFF" xlink:href="#c"/>
                    <rect width="28" height="80" x="956" y="1" stroke="#A38067" stroke-width="2" rx="4"/>
                </g>
                <g transform="translate(120 4)">
                    <use fill="#FFF" xlink:href="#d"/>
                    <rect width="28" height="80" x="1102" y="1" stroke="#A38067" stroke-width="2" rx="4"/>
                </g>
                <g transform="translate(120 4)">
                    <use fill="#FFF" xlink:href="#e"/>
                    <rect width="28" height="80" x="956" y="133" stroke="#A38067" stroke-width="2" rx="4"/>
                </g>
                <g transform="translate(120 4)">
                    <use fill="#FFF" xlink:href="#f"/>
                    <rect width="28" height="80" x="1102" y="133" stroke="#A38067" stroke-width="2" rx="4"/>
                </g>
            </g>
        </g>
        <g>
            <path fill="#F4F4EE" d="M739 4h392v222H739z"/>
            <path fill="#252525" d="M938.046 120v-10.528h4.102c.457 0 .882.058 1.274.175.392.117.73.294 1.015.532.285.238.506.532.665.882.159.35.238.758.238 1.225 0 .877-.327 1.568-.98 2.072.439.243.805.572 1.099.987.294.415.441.94.441 1.575 0 .495-.091.933-.273 1.316a2.781 2.781 0 0 1-.749.966c-.317.261-.684.46-1.099.595a4.244 4.244 0 0 1-1.323.203h-4.41zm4.326-1.834c.513 0 .894-.124 1.141-.371s.371-.595.371-1.043c0-.448-.138-.791-.413-1.029-.275-.238-.73-.357-1.365-.357h-2.086v2.8h2.352zm-.672-4.48c.56 0 .98-.107 1.26-.322.28-.215.42-.518.42-.91 0-.383-.124-.67-.371-.861-.247-.191-.6-.287-1.057-.287h-1.932v2.38h1.68zm5.362 6.314v-10.528h1.974V120h-1.974zm9.03-7.476c-.15-.476-.366-.84-.651-1.092-.285-.252-.665-.378-1.141-.378-.448 0-.786.103-1.015.308a.963.963 0 0 0-.343.742.83.83 0 0 0 .14.483c.093.135.231.266.413.392.182.126.404.254.665.385.261.13.565.28.91.448.392.196.763.394 1.113.595.35.2.658.43.924.686.266.257.476.548.63.875.154.327.231.71.231 1.148a2.9 2.9 0 0 1-.28 1.288 2.783 2.783 0 0 1-.77.966 3.509 3.509 0 0 1-1.169.602c-.453.14-.945.21-1.477.21-.579 0-1.085-.08-1.519-.238a3.659 3.659 0 0 1-1.134-.651 4.038 4.038 0 0 1-.819-.959 7.682 7.682 0 0 1-.588-1.176l1.736-.826c.075.261.173.516.294.763s.275.469.462.665c.187.196.413.352.679.469.266.117.581.175.945.175.485 0 .887-.107 1.204-.322.317-.215.476-.513.476-.896a.983.983 0 0 0-.154-.546 1.777 1.777 0 0 0-.434-.448 4.903 4.903 0 0 0-.686-.42c-.27-.14-.574-.294-.91-.462a15.389 15.389 0 0 1-1.008-.553c-.336-.2-.64-.427-.91-.679a3.14 3.14 0 0 1-.658-.868 2.446 2.446 0 0 1-.252-1.134 2.55 2.55 0 0 1 .987-2.051 3.386 3.386 0 0 1 1.064-.553c.406-.13.842-.196 1.309-.196.495 0 .933.068 1.316.203a3.38 3.38 0 0 1 1.708 1.309c.196.29.35.588.462.896l-1.75.84zM961.3 120v-8.694h-2.898v-1.834h7.77v1.834h-2.898V120H961.3zm11.62 0l-3.066-4.326h-.7V120h-1.974v-10.528h3.864c.448 0 .877.063 1.288.189.41.126.772.317 1.085.574.313.257.56.579.742.966.182.387.273.847.273 1.379 0 .812-.212 1.472-.637 1.981-.425.509-1.001.842-1.729 1.001.523.728 1.045 1.468 1.568 2.219.523.751 1.045 1.491 1.568 2.219h-2.282zm-2.016-6.16c.476 0 .85-.119 1.12-.357.27-.238.401-.553.392-.945-.019-.41-.173-.719-.462-.924-.29-.205-.64-.308-1.05-.308h-1.75v2.534h1.75zm10.248 6.342c-.84 0-1.587-.152-2.24-.455a4.99 4.99 0 0 1-1.652-1.211 5.236 5.236 0 0 1-1.022-1.736 5.99 5.99 0 0 1-.35-2.03c0-.728.124-1.423.371-2.086a5.29 5.29 0 0 1 1.057-1.743 5.13 5.13 0 0 1 1.659-1.197c.649-.299 1.374-.448 2.177-.448.803 0 1.526.15 2.17.448a5.1 5.1 0 0 1 1.652 1.204 5.274 5.274 0 0 1 1.05 1.75c.243.663.364 1.358.364 2.086 0 .7-.114 1.377-.343 2.03a5.066 5.066 0 0 1-1.015 1.729c-.448.5-.996.9-1.645 1.204-.649.303-1.393.455-2.233.455zm-.014-1.806c.579 0 1.073-.105 1.484-.315a2.86 2.86 0 0 0 1.001-.826c.257-.34.446-.728.567-1.162.121-.434.182-.875.182-1.323 0-.476-.065-.936-.196-1.379a3.418 3.418 0 0 0-.595-1.169 2.98 2.98 0 0 0-1.008-.812c-.406-.205-.884-.308-1.435-.308-.541 0-1.015.1-1.421.301-.406.2-.742.471-1.008.812-.266.34-.467.733-.602 1.176a4.697 4.697 0 0 0-.203 1.379c0 .457.06.903.182 1.337.121.434.313.821.574 1.162.261.34.597.614 1.008.819.41.205.9.308 1.47.308z"/>
            <g fill="#0B0B09">
                <path d="M921.486 113.317a.8.8 0 0 0 1.132 0l3.394-3.394-1.131-1.13-3.395 3.393a.8.8 0 0 0 0 1.131M920.92 111.62l3.395-3.394-1.132-1.131-3.394 3.394a.8.8 0 1 0 1.132 1.131M923.183 115.014a.8.8 0 0 0 1.132 0l3.394-3.394-1.131-1.13-3.395 3.393a.8.8 0 0 0 0 1.131M927.709 121.049l-13.814-13.815a.8.8 0 0 0-1.26.17 4.79 4.79 0 0 0 .77 5.752l4.499 4.498-3.394 3.395a.535.535 0 0 1-.755-.755l2.263-2.263-1.131-1.13-2.263 2.262a2.135 2.135 0 0 0 0 3.017 2.135 2.135 0 0 0 3.017 0l4.525-4.526-5.63-5.63a3.187 3.187 0 0 1-.887-2.773l12.929 12.929a.8.8 0 1 0 1.13-1.131"/>
            </g>
            <rect width="1574" height="226" x="2" y="2" stroke="#DBDBD7" stroke-width="4" rx="15"/>
            <g stroke="#DBDBD7" stroke-width="4">
                <path d="M94 2H38v4a4 4 0 0 0 4 4h48a4 4 0 0 0 4-4V2zM38 228h56v-4a4 4 0 0 0-4-4H42a4 4 0 0 0-4 4v4z"/>
            </g>
            <g>
                <path fill="#00A2C7" d="M194 0h96v2h-96zM326 0h96v2h-96zM460 0h96v2h-96zM194 228h96v2h-96zM326 228h96v2h-96zM460 228h96v2h-96z"/>
                <path fill="#FFF" d="M194 226h96v2h-96zM326 226h96v2h-96zM460 226h96v2h-96z"/>
                <path fill="#00A2C7" d="M616 0h72v2h-72z"/>
                <path fill="#FFF" d="M194 2h96v2h-96zM326 2h96v2h-96zM460 2h96v2h-96zM1198 226h69v2h-69zM1293 226h69v2h-69zM1389 226h69v2h-69zM1198 2h69v2h-69zM1293 2h69v2h-69zM1389 2h69v2h-69zM616 2h72v2h-72z"/>
                <path fill="#00A2C7" d="M688 0h24v2h-24z"/>
                <path fill="#DBDBD7" d="M688 2h24v2h-24z"/>
                <path fill="#00A2C7" d="M1198 0h69v2h-69zM1293 0h69v2h-69zM1389 0h69v2h-69zM1198 228h69v2h-69zM1293 228h69v2h-69zM1389 228h69v2h-69z"/>
            </g>
        </g>
    </g>
</svg>
