<svg xmlns="http://www.w3.org/2000/svg" width="22" height="19" viewBox="0 0 22 19">
    <path fill="#252525" fill-rule="evenodd" d="M20.898 11.327h.002c.608 0 1.1.49 1.1 1.096 0 .605-.492 1.096-1.1 1.096h-1.1c0 1.211-.985 2.193-2.2 2.193h-1.1c-1.215 0-2.2-.982-2.2-2.193H7.7c0 1.211-.985 2.193-2.2 2.193H4.4c-1.215 0-2.2-.982-2.2-2.193H0V2.192C0 .982.985 0 2.2 0h17.6c1.215 0 2.2.982 2.2 2.192v6.943h-2.2V2.192H2.2v9.135h2.2v2.192h1.1v-2.192h11v2.192h1.1v-2.192h3.298zM4.4 4.385h3.667v2.192H4.4V4.385zm4.767 0h3.666v2.192H9.167V4.385zm4.766 0H17.6v2.192h-3.667V4.385zM0 16.808h22V19H0v-2.192z"/>
</svg>
